<svg xmlns="http://www.w3.org/2000/svg" width="37.692" height="31.766" viewBox="0 0 37.692 31.766">
  <g id="basket-outline" transform="translate(0.847 -3)">
    <path id="Path_18" data-name="Path 18" d="M5.076,13.5a1.7,1.7,0,0,0-1.7,1.683,1.487,1.487,0,0,0,.066.459l4.311,15.19a3.374,3.374,0,0,0,3.261,2.458H30.428a3.408,3.408,0,0,0,3.277-2.458l4.311-15.19.05-.459a1.7,1.7,0,0,0-1.7-1.683ZM21.2,26.838a3.505,3.505,0,1,1,3.526-3.505A3.507,3.507,0,0,1,21.2,26.838Z" transform="translate(-2.721 -0.024)" fill="none" stroke="#bebebe" stroke-linejoin="round" stroke-width="3"/>
    <path id="Path_19" data-name="Path 19" d="M11.25,13.5,18,4.5l6.75,9" fill="none" stroke="#bebebe" stroke-linejoin="round" stroke-width="3"/>
  </g>
</svg>
