<svg xmlns="http://www.w3.org/2000/svg" width="36.401" height="31.127" viewBox="0 0 36.401 31.127">
  <path id="bike" d="M23.238,5.977A2.876,2.876,0,0,1,21.129,5.1a2.876,2.876,0,0,1-.879-2.109A2.876,2.876,0,0,1,21.129.88a2.97,2.97,0,0,1,4.218,0,2.876,2.876,0,0,1,.879,2.109A2.876,2.876,0,0,1,25.347,5.1,2.876,2.876,0,0,1,23.238,5.977ZM7.488,15.75A7.225,7.225,0,0,1,12.8,17.93a7.225,7.225,0,0,1,2.18,5.309,7.225,7.225,0,0,1-2.18,5.309,7.225,7.225,0,0,1-5.309,2.18A7.22,7.22,0,0,1,2.18,28.547,7.233,7.233,0,0,1,0,23.238,7.219,7.219,0,0,1,2.18,17.93a7.227,7.227,0,0,1,5.309-2.18Zm0,12.727a5.036,5.036,0,0,0,3.691-1.547,5.177,5.177,0,0,0,0-7.382A5.041,5.041,0,0,0,7.488,18,5.042,5.042,0,0,0,3.8,19.547a5.178,5.178,0,0,0,0,7.383,5.036,5.036,0,0,0,3.691,1.547ZM16.172,13.5l3.305,3.445v9.281H16.524V18.773l-4.852-4.219a2.588,2.588,0,0,1-.844-2.109,3.016,3.016,0,0,1,.844-2.109l4.219-4.219A2.588,2.588,0,0,1,18,5.273a3.916,3.916,0,0,1,2.391.844L23.274,9a7.3,7.3,0,0,0,5.344,2.25v3.023a10.209,10.209,0,0,1-7.594-3.164L19.829,9.914Zm12.34,2.25A7.443,7.443,0,0,1,36,23.239a7.443,7.443,0,0,1-7.489,7.489,7.443,7.443,0,0,1-7.489-7.489,7.443,7.443,0,0,1,7.489-7.489Zm0,12.727a5.282,5.282,0,0,0,5.238-5.238,5.22,5.22,0,0,0-8.929-3.691,5.177,5.177,0,0,0,0,7.382,5.036,5.036,0,0,0,3.691,1.547Z" transform="translate(0.2 0.199)" fill="#bebebe" stroke="#bebebe" stroke-width="0.4"/>
</svg>
