<svg xmlns="http://www.w3.org/2000/svg" width="16" height="17.029" viewBox="0 0 16 17.029">
  <g id="bx-user" transform="translate(-4.5 -3)">
    <path id="Path_53" data-name="Path 53" d="M22.5,10.5A4.5,4.5,0,1,1,18,6,4.5,4.5,0,0,1,22.5,10.5Z" transform="translate(-5.5)" fill="none"/>
    <path id="Path_54" data-name="Path 54" d="M12.5,3a4.481,4.481,0,1,0,4.444,4.481A4.468,4.468,0,0,0,12.5,3Zm0,7.17a2.689,2.689,0,1,1,2.667-2.689A2.681,2.681,0,0,1,12.5,10.17Zm8,9.859v-.9a6.257,6.257,0,0,0-6.222-6.274H10.722A6.256,6.256,0,0,0,4.5,19.133v.9H6.278v-.9a4.468,4.468,0,0,1,4.444-4.481h3.556a4.468,4.468,0,0,1,4.444,4.481v.9Z" fill="#bcbcbc"/>
  </g>
</svg>
