<svg xmlns="http://www.w3.org/2000/svg" width="34.876" height="31.388" viewBox="0 0 34.876 31.388">
  <g id="bx-wallet" transform="translate(-3 -4.5)">
    <path id="Path_16" data-name="Path 16" d="M24,18h3.488v6.975H24Z" transform="translate(3.413 2.194)" fill="#bebebe"/>
    <path id="Path_17" data-name="Path 17" d="M34.388,11.475V7.988A3.49,3.49,0,0,0,30.9,4.5H8.231A5.238,5.238,0,0,0,3,9.731V30.657a5.085,5.085,0,0,0,5.231,5.231H34.388A3.49,3.49,0,0,0,37.876,32.4V14.963A3.49,3.49,0,0,0,34.388,11.475ZM8.231,7.988H30.9v3.488H8.231a1.745,1.745,0,0,1,0-3.488ZM34.388,32.4H8.252a1.6,1.6,0,0,1-1.765-1.744V14.641a5.112,5.112,0,0,0,1.744.322H34.388Z" transform="translate(0)" fill="#bebebe"/>
  </g>
</svg>
