<svg xmlns="http://www.w3.org/2000/svg" width="20.14" height="20.104" viewBox="0 0 20.14 20.104">
  <g id="Group_5" data-name="Group 5" transform="translate(0 0)">
    <path id="edit-line" d="M22.085,5.891l-3.677-3.7a1.3,1.3,0,0,0-1.829,0L3.542,15.212l-1.19,5.137a1.29,1.29,0,0,0,1.253,1.566,1.341,1.341,0,0,0,.269,0l5.193-1.19,13.017-13A1.3,1.3,0,0,0,22.085,5.891ZM8.441,19.6,3.574,20.618l1.109-4.773,9.754-9.716,3.759,3.759ZM19.034,8.979,15.276,5.221l2.18-2.167,3.7,3.759Z" transform="translate(-2.322 -1.817)" fill="#0f86ef"/>
  </g>
</svg>
