<svg id="Trailing_icon" data-name="Trailing icon" xmlns="http://www.w3.org/2000/svg" width="18" height="20" viewBox="0 0 18 20">
  <rect id="Boundary" width="18" height="18" fill="none"/>
  <path id="_Color" data-name=" ↳Color" d="M8,11A8.483,8.483,0,0,1,3.108,9.457,8.669,8.669,0,0,1,0,5.5,8.668,8.668,0,0,1,3.108,1.543a8.526,8.526,0,0,1,9.784,0A8.668,8.668,0,0,1,16,5.5a8.668,8.668,0,0,1-3.108,3.958A8.483,8.483,0,0,1,8,11ZM8,1.833A3.667,3.667,0,1,0,11.636,5.5,3.655,3.655,0,0,0,8,1.833ZM8,7.7a2.2,2.2,0,1,1,2.182-2.2A2.194,2.194,0,0,1,8,7.7Z" transform="translate(1 4.5)" fill="#bebebe"/>
</svg>
