<svg xmlns="http://www.w3.org/2000/svg" width="33.75" height="34.053" viewBox="0 0 33.75 34.053">
  <g id="fast-food-outline" transform="translate(-1.125 -0.822)">
    <path id="Path_30" data-name="Path 30" d="M22.641,29.25c0,2.486-1.452,4.5-3.938,4.5H9.422c-2.486,0-3.938-2.014-3.938-4.5" fill="none" stroke="#bebebe" stroke-linecap="round" stroke-miterlimit="10" stroke-width="2.25"/>
    <path id="Path_31" data-name="Path 31" d="M23.625,23.625a2.579,2.579,0,0,1,2.25,2.813h0a2.58,2.58,0,0,1-2.25,2.813H4.5a2.579,2.579,0,0,1-2.25-2.813h0A2.58,2.58,0,0,1,4.5,23.625" fill="none" stroke="#bebebe" stroke-linecap="round" stroke-miterlimit="10" stroke-width="2.25"/>
    <path id="Path_32" data-name="Path 32" d="M24.188,23.625H12.608a.563.563,0,0,0-.4.165l-1.886,1.886a.281.281,0,0,1-.4,0L8.041,23.79a.563.563,0,0,0-.4-.165H3.938A1.688,1.688,0,0,1,2.25,21.937h0a1.688,1.688,0,0,1,1.688-1.688h20.25a1.688,1.688,0,0,1,1.688,1.688h0A1.688,1.688,0,0,1,24.188,23.625Z" fill="none" stroke="#bebebe" stroke-linecap="round" stroke-miterlimit="10" stroke-width="2.25"/>
    <path id="Path_33" data-name="Path 33" d="M4.5,19.406v-.015c0-3.867,3.164-5.891,7.031-5.891h5.063c3.867,0,7.031,2.039,7.031,5.906v-.015" fill="none" stroke="#bebebe" stroke-linecap="round" stroke-miterlimit="10" stroke-width="2.25"/>
    <path id="Path_34" data-name="Path 34" d="M16.945,7.875l.523,4.5" fill="none" stroke="#bebebe" stroke-linecap="round" stroke-miterlimit="10" stroke-width="2.25"/>
    <path id="Path_35" data-name="Path 35" d="M18,33.75h9.8a2.25,2.25,0,0,0,2.244-2.082L32.555,7.875" fill="none" stroke="#bebebe" stroke-linecap="round" stroke-miterlimit="10" stroke-width="2.25"/>
    <path id="Path_36" data-name="Path 36" d="M25.875,7.875,27,3.375,30.305,2.25" fill="none" stroke="#bebebe" stroke-linecap="round" stroke-linejoin="round" stroke-width="2.25"/>
    <path id="Path_37" data-name="Path 37" d="M15.75,7.875h18" fill="none" stroke="#bebebe" stroke-linecap="round" stroke-miterlimit="10" stroke-width="2.25"/>
  </g>
</svg>
