<svg xmlns="http://www.w3.org/2000/svg" width="31.499" height="31.499" viewBox="0 0 31.499 31.499">
  <g id="fish" transform="translate(-2.251 -2.25)">
    <path id="Path_45" data-name="Path 45" d="M28.125,7.875A1.125,1.125,0,1,1,27,6.75,1.125,1.125,0,0,1,28.125,7.875Z" fill="#bebebe"/>
    <path id="Path_46" data-name="Path 46" d="M29.25,2.25a18.02,18.02,0,0,0-18,18V22.5H3.375a1.125,1.125,0,0,0-.795,1.92l9,9a1.125,1.125,0,0,0,1.92-.795V24.75h2.25a18.02,18.02,0,0,0,18-18V2.25Zm-18,27.659L6.091,24.75H11.25ZM13.5,22.5V20.25A15.682,15.682,0,0,1,17.9,9.362L26.637,18.1A15.682,15.682,0,0,1,15.75,22.5Zm18-15.75a15.654,15.654,0,0,1-3.352,9.68L19.569,7.853A15.655,15.655,0,0,1,29.25,4.5H31.5Z" fill="#bebebe"/>
  </g>
</svg>
