<svg xmlns="http://www.w3.org/2000/svg" width="34" height="34" viewBox="0 0 34 34">
  <g id="Group_19" data-name="Group 19" transform="translate(-1146 -274)">
    <path id="close" d="M16.982,16.375a1.293,1.293,0,0,1-.391.95l-1.9,1.9a1.35,1.35,0,0,1-1.9,0L8.683,15.117,4.576,19.225a1.293,1.293,0,0,1-.95.391,1.293,1.293,0,0,1-.95-.391l-1.9-1.9a1.35,1.35,0,0,1,0-1.9l4.108-4.108L.775,7.21a1.35,1.35,0,0,1,0-1.9l1.9-1.9a1.293,1.293,0,0,1,.95-.391,1.293,1.293,0,0,1,.95.391L8.683,7.517l4.108-4.108a1.35,1.35,0,0,1,1.9,0l1.9,1.9a1.35,1.35,0,0,1,0,1.9l-4.108,4.108,4.108,4.108a1.293,1.293,0,0,1,.391.95Z" transform="translate(1154.616 279.982)" fill="#da2c38"/>
    <g id="Ellipse_11" data-name="Ellipse 11" transform="translate(1146 274)" fill="none" stroke="#da2c38" stroke-width="1">
      <circle cx="17" cy="17" r="17" stroke="none"/>
      <circle cx="17" cy="17" r="16.5" fill="none"/>
    </g>
  </g>
</svg>
