<svg xmlns="http://www.w3.org/2000/svg" xmlns:xlink="http://www.w3.org/1999/xlink" width="260" height="176" viewBox="0 0 260 176">
  <defs>
    <clipPath id="clip-path">
      <rect id="Rectangle_16" data-name="Rectangle 16" width="260" height="176" rx="20" transform="translate(1520 250)" fill="#fef5b8"/>
    </clipPath>
  </defs>
  <g id="Group_41" data-name="Group 41" transform="translate(-1520 -250)">
    <rect id="Rectangle_13" data-name="Rectangle 13" width="260" height="176" rx="20" transform="translate(1520 250)" fill="#fef5b8"/>
    <g id="Mask_Group_5" data-name="Mask Group 5" clip-path="url(#clip-path)">
      <path id="Path_25" data-name="Path 25" d="M137.68,1.633h19a136,136,0,0,1,136,136v19a136,136,0,0,1-136,136h-19a136,136,0,0,1-136-136v-19A136,136,0,0,1,137.68,1.633Z" transform="matrix(0.951, -0.309, 0.309, 0.951, 1591.057, 51.89)" fill="#f18701" opacity="0.89" style="mix-blend-mode: screen;isolation: isolate"/>
      <path id="Path_28" data-name="Path 28" d="M137.68,1.633h19a136,136,0,0,1,136,136v19a136,136,0,0,1-136,136h-19a136,136,0,0,1-136-136v-19A136,136,0,0,1,137.68,1.633Z" transform="matrix(0.951, -0.309, 0.309, 0.951, 1591.057, 39.89)" fill="#ffb14e" opacity="0.89" style="mix-blend-mode: screen;isolation: isolate"/>
    </g>
  </g>
</svg>
