<svg xmlns="http://www.w3.org/2000/svg" width="88.964" height="84.346" viewBox="0 0 88.964 84.346">
  <g id="image" transform="translate(-0.005 -2.25)">
    <path id="Path_38" data-name="Path 38" d="M77.849,8.275H11.126A5.806,5.806,0,0,0,5.565,14.3V74.546a5.806,5.806,0,0,0,5.56,6.025H77.849a5.806,5.806,0,0,0,5.56-6.025V14.3a5.806,5.806,0,0,0-5.56-6.025ZM11.126,2.25C4.984,2.25,0,7.645,0,14.3V74.546C0,81.2,4.984,86.6,11.126,86.6H77.849c6.142,0,11.121-5.395,11.121-12.049V14.3c0-6.655-4.979-12.049-11.121-12.049H11.126Z" transform="translate(0 0)" fill="#bebebe" fill-rule="evenodd"/>
    <path id="Path_39" data-name="Path 39" d="M57.093,17.754a2.724,2.724,0,0,1,3.28-.56L81.847,28.925V56.036H2.255V43.986L17.3,29.806a2.724,2.724,0,0,1,3.58-.375L36,40.112,57.1,17.759Z" transform="translate(2.436 25.535)" fill="#bebebe"/>
    <path id="Path_40" data-name="Path 40" d="M15.792,27.074a9.037,9.037,0,1,0-9.037-9.037,9.037,9.037,0,0,0,9.037,9.037Z" transform="translate(9.609 11.324)" fill="#bebebe" fill-rule="evenodd"/>
  </g>
</svg>
