<svg xmlns="http://www.w3.org/2000/svg" width="12.761" height="17.654" viewBox="0 0 12.761 17.654">
  <g id="lock" transform="translate(-5.225 -0.725)">
    <path id="Path_55" data-name="Path 55" d="M15.411,9.28H7.8a1.087,1.087,0,0,0-1.087,1.087V15.8A1.087,1.087,0,0,0,7.8,16.891h7.611A1.087,1.087,0,0,0,16.5,15.8V10.367A1.087,1.087,0,0,0,15.411,9.28ZM7.8,8.193a2.175,2.175,0,0,0-2.175,2.175V15.8A2.175,2.175,0,0,0,7.8,17.979h7.611A2.175,2.175,0,0,0,17.586,15.8V10.367a2.175,2.175,0,0,0-2.175-2.175Zm0-3.262a3.806,3.806,0,1,1,7.611,0V8.193H14.324V4.931a2.718,2.718,0,1,0-5.437,0V8.193H7.8Z" transform="translate(0)" fill="#bcbcbc" stroke="#bebebe" stroke-width="0.8" fill-rule="evenodd"/>
  </g>
</svg>
