<svg xmlns="http://www.w3.org/2000/svg" width="27" height="29" viewBox="0 0 27 29">
  <g id="view-mode-2" transform="translate(-4.5 -4.5)">
    <path id="Path_1" data-name="Path 1" d="M4.5,29.25h27v2.787H4.5Z" transform="translate(0 1.463)" fill="#fff"/>
    <path id="Path_2" data-name="Path 2" d="M4.5,21.375h27v2.787H4.5Z" transform="translate(0 -0.415)" fill="#fff"/>
    <path id="Path_3" data-name="Path 3" d="M13.5,6.75V13.5H6.75V6.75H13.5m0-2.25H6.75A2.25,2.25,0,0,0,4.5,6.75V13.5a2.25,2.25,0,0,0,2.25,2.25H13.5a2.25,2.25,0,0,0,2.25-2.25V6.75A2.25,2.25,0,0,0,13.5,4.5Z" fill="#fff"/>
    <path id="Path_4" data-name="Path 4" d="M29.25,6.75V13.5H22.5V6.75h6.75m0-2.25H22.5a2.25,2.25,0,0,0-2.25,2.25V13.5a2.25,2.25,0,0,0,2.25,2.25h6.75A2.25,2.25,0,0,0,31.5,13.5V6.75A2.25,2.25,0,0,0,29.25,4.5Z" fill="#fff"/>
  </g>
</svg>
